<svg width="17" height="17" viewBox="0 0 17 17" fill="none" xmlns="http://www.w3.org/2000/svg">
<path d="M8.16602 1.90095C4.55106 1.90095 1.62056 4.77264 1.62056 8.31506C1.62056 11.8575 4.55106 14.7292 8.16602 14.7292C8.56768 14.7292 8.89329 15.0483 8.89329 15.4419C8.89329 15.8355 8.56768 16.1545 8.16602 16.1545C3.74774 16.1545 0.166016 12.6447 0.166016 8.31506C0.166016 3.98544 3.74774 0.475586 8.16602 0.475586C12.5843 0.475586 16.166 3.98544 16.166 8.31506C16.166 9.14768 16.0752 10.1615 15.6924 10.9919C15.497 11.416 15.2119 11.8218 14.7956 12.1216C14.3711 12.4273 13.8537 12.5911 13.2569 12.5911C12.6448 12.5911 12.122 12.4071 11.7001 12.0829C11.2891 11.767 11.0094 11.3459 10.8179 10.9169C10.8011 10.8793 10.7849 10.8414 10.7692 10.8031C10.1088 11.4665 9.18649 11.8785 8.16602 11.8785C6.15771 11.8785 4.52965 10.2831 4.52965 8.31506C4.52965 6.34705 6.15771 4.75166 8.16602 4.75166C9.0161 4.75166 9.79805 5.03751 10.4172 5.51646C10.5337 5.27503 10.7845 5.108 11.0751 5.108C11.4768 5.108 11.8024 5.42708 11.8024 5.82068V8.31506C11.8024 8.98932 11.8914 9.76522 12.1505 10.3456C12.2771 10.6293 12.4293 10.8319 12.5978 10.9613C12.7555 11.0826 12.9599 11.1658 13.2569 11.1658C13.5692 11.1658 13.7791 11.0848 13.9342 10.9731C14.0974 10.8555 14.2442 10.6713 14.3669 10.4051C14.6204 9.85507 14.7115 9.08715 14.7115 8.31506C14.7115 4.77264 11.781 1.90095 8.16602 1.90095ZM10.3478 8.31506C10.3478 7.13426 9.371 6.17702 8.16602 6.17702C6.96103 6.17702 5.9842 7.13426 5.9842 8.31506C5.9842 9.49587 6.96103 10.4531 8.16602 10.4531C9.371 10.4531 10.3478 9.49587 10.3478 8.31506Z" fill="#465568"/>
</svg>
