<svg width="16" height="16" viewBox="0 0 16 16" fill="none" xmlns="http://www.w3.org/2000/svg">
<path d="M1.10779 2.43513C0.0506018 3.42847 -0.430398 4.96919 0.481684 6.31024C1.23535 7.41837 2.55836 9.03323 4.87656 11.2114C7.19475 13.3896 8.91341 14.6327 10.0928 15.3409C11.52 16.1979 13.1598 15.7459 14.2169 14.7526L15.3442 13.6934C16.2186 12.8718 16.2186 11.5397 15.3442 10.718L13.8658 9.32891C13.2076 8.71047 12.1898 8.58361 11.3827 9.01941C10.9032 9.27835 10.2985 9.20297 9.90744 8.83552L7.40516 6.48437C7.0141 6.11692 6.93387 5.54871 7.20945 5.09817C7.67327 4.33988 7.53825 3.38355 6.88006 2.76512L5.40165 1.37599C4.5272 0.554356 3.10945 0.554358 2.235 1.37599L1.10779 2.43513ZM1.73954 5.55494C1.30661 4.91839 1.45432 4.09312 2.16333 3.42693L3.29055 2.36779C3.58203 2.09391 4.05462 2.09391 4.3461 2.36779L5.82451 3.75692C6.00573 3.92719 6.0429 4.19049 5.9152 4.39926C5.30351 5.39932 5.48158 6.66055 6.34962 7.47617L8.85189 9.82732C9.71993 10.6429 11.0622 10.8102 12.1266 10.2355C12.3488 10.1155 12.629 10.1504 12.8102 10.3207L14.2886 11.7098C14.5801 11.9837 14.5801 12.4278 14.2886 12.7016L13.1614 13.7608C12.4524 14.427 11.5741 14.5658 10.8966 14.159C9.82808 13.5174 8.19266 12.3436 5.9321 10.2196C3.67155 8.09559 2.42239 6.55894 1.73954 5.55494ZM9.82692 1.58143C9.82692 1.1941 10.1611 0.880119 10.5733 0.880119C13.4588 0.880119 15.798 3.07802 15.798 5.78927C15.798 6.1766 15.4638 6.49058 15.0516 6.49058C14.6394 6.49058 14.3052 6.1766 14.3052 5.78927C14.3052 3.85267 12.6344 2.28273 10.5733 2.28273C10.1611 2.28273 9.82692 1.96875 9.82692 1.58143ZM9.82692 4.38666C9.82692 3.99934 10.1611 3.68535 10.5733 3.68535C11.81 3.68535 12.8125 4.62731 12.8125 5.78927C12.8125 6.1766 12.4783 6.49058 12.0661 6.49058C11.6539 6.49058 11.3197 6.1766 11.3197 5.78927C11.3197 5.40195 10.9855 5.08797 10.5733 5.08797C10.1611 5.08797 9.82692 4.77398 9.82692 4.38666Z" fill="#465568"/>
</svg>
